<svg xmlns="http://www.w3.org/2000/svg" xml:space="preserve" fill-rule="evenodd" stroke-linejoin="round" stroke-miterlimit="2" clip-rule="evenodd" viewBox="0 0 246 246"><path fill="url(#a)" d="M245.76 53.61v138.54a53.63 53.63 0 0 1-53.61 53.61H53.61A53.63 53.63 0 0 1 0 192.15V53.61A53.63 53.63 0 0 1 53.61 0h138.54a53.63 53.63 0 0 1 53.61 53.61"/><path fill="none" d="M0 0h245.76v245.76H0z"/><g fill="#fff"><path d="M108.33 161.21c-3.59 18.54-15.98 28.33-28.78 29.64-12.82 1.31-27.01-5.79-34.37-23.27-4.91-11.65-8.81-24.06-14.46-31.93-1.77-2.47-3.61-4.48-6.08-5.14-2.55-.68-5.47.2-9.15 2.22a8 8 0 0 1-7.7-14.02c8.31-4.56 15.2-5.19 20.96-3.66 5.83 1.55 10.8 5.46 14.97 11.26 6.23 8.67 10.81 22.22 16.22 35.06 4 9.49 11.04 14.27 18 13.56 5.56-.57 10.43-4.59 13.13-11.35A61.75 61.75 0 0 1 123 48.96a61.75 61.75 0 0 1 31.77 114.72c2.7 6.73 7.55 10.73 13.09 11.29 6.96.7 14-4.1 18-13.6 5.41-12.84 9.98-26.39 16.22-35.06 4.17-5.81 9.14-9.71 14.97-11.26 5.76-1.53 12.65-.91 20.96 3.66a8 8 0 1 1-7.7 14.02c-3.68-2.02-6.6-2.9-9.15-2.22-2.48.66-4.31 2.67-6.08 5.14-5.66 7.87-9.56 20.28-14.46 31.93-7.36 17.47-21.54 24.6-34.34 23.31-12.84-1.29-25.26-11.11-28.81-29.77a8 8 0 0 1 4.83-8.9 45.78 45.78 0 0 0-19.28-87.27 45.78 45.78 0 0 0-19.26 87.28q.7.3 1.32.74a8.1 8.1 0 0 1 3.29 8.24Z"/><circle cx="138.34" cy="126.08" r="9.6"/><circle cx="107.62" cy="126.08" r="9.6"/></g><defs><linearGradient id="a" x1="0" x2="1" y1="0" y2="0" gradientTransform="rotate(45 -21.72 52.44)scale(130.33)" gradientUnits="userSpaceOnUse"><stop offset="0" stop-color="#c8abfa"/><stop offset="1" stop-color="#8e5cd9"/></linearGradient></defs></svg>